HIERARCHY
ROOT SpineBase
{
  OFFSET 0.000000 0.000000 0.000000
  CHANNELS 6 Xposition Yposition Zposition Zrotation Xrotation Yrotation
  JOINT SpineMid
  {
    OFFSET -0.000000 23.553902 0.000000
    CHANNELS 3 Zrotation Xrotation Yrotation
    JOINT SpineShoulder
    {
      OFFSET -0.209399 17.685876 -0.849186
      CHANNELS 3 Zrotation Xrotation Yrotation
      JOINT Neck
      {
        OFFSET -0.097487 5.915427 -0.609751
        CHANNELS 3 Zrotation Xrotation Yrotation
        JOINT Head
        {
          OFFSET -7.386373 5.508307 -2.232311
          CHANNELS 3 Zrotation Xrotation Yrotation
          End Site
          {
            OFFSET 0 0 0
          }
        }
      }
      JOINT ShoulderLeft
      {
        OFFSET -13.107072 -7.878631 -2.281500
        CHANNELS 3 Zrotation Xrotation Yrotation
        JOINT ElbowLeft
        {
          OFFSET 4.422443 -19.308905 -3.189703
          CHANNELS 3 Zrotation Xrotation Yrotation
          JOINT WristLeft
          {
            OFFSET 15.448878 -1.696552 4.048994
            CHANNELS 3 Zrotation Xrotation Yrotation
            JOINT HandLeft
            {
              OFFSET 1.798266 -2.073987 -4.144818
              CHANNELS 3 Zrotation Xrotation Yrotation
              JOINT HandTipLeft
              {
                OFFSET -0.802725 -0.069802 -0.674968
                CHANNELS 3 Zrotation Xrotation Yrotation
                End Site
                {
                  OFFSET 0 0 0
                }
              }
              JOINT ThumbLeft
              {
                OFFSET -0.284632 2.961232 -1.571299
                CHANNELS 3 Zrotation Xrotation Yrotation
                End Site
                {
                  OFFSET 0 0 0
                }
              }
            }
          }
        }
      }
      JOINT ShoulderRight
      {
        OFFSET 3.551134 12.647409 1.288685
        CHANNELS 3 Zrotation Xrotation Yrotation
        JOINT ElbowRight
        {
          OFFSET -8.775812 15.779858 -17.204332
          CHANNELS 3 Zrotation Xrotation Yrotation
          JOINT WristRight
          {
            OFFSET 5.783626 -13.826608 0.676846
            CHANNELS 3 Zrotation Xrotation Yrotation
            JOINT HandRight
            {
              OFFSET 4.124532 -3.259038 3.266792
              CHANNELS 3 Zrotation Xrotation Yrotation
              JOINT HandTipRight
              {
                OFFSET 3.943664 -4.463093 -0.188918
                CHANNELS 3 Zrotation Xrotation Yrotation
                End Site
                {
                  OFFSET 0 0 0
                }
              }
              JOINT ThumbRight
              {
                OFFSET 0.047375 -1.813977 -1.401750
                CHANNELS 3 Zrotation Xrotation Yrotation
                End Site
                {
                  OFFSET 0 0 0
                }
              }
            }
          }
        }
      }
    }
  }
  JOINT HipLeft
  {
    OFFSET -4.482679 -1.203104 -4.773575
    CHANNELS 3 Zrotation Xrotation Yrotation
    JOINT KneeLeft
    {
      OFFSET -2.666939 -7.542727 1.207370
      CHANNELS 3 Zrotation Xrotation Yrotation
      JOINT AnkleLeft
      {
        OFFSET 4.499799 -24.788108 1.680041
        CHANNELS 3 Zrotation Xrotation Yrotation
        JOINT FootLeft
        {
          OFFSET 2.070595 -2.338063 -11.039184
          CHANNELS 3 Zrotation Xrotation Yrotation
          End Site
          {
            OFFSET 0 0 0
          }
        }
      }
    }
  }
  JOINT HipRight
  {
    OFFSET 4.124375 3.186791 -1.274028
    CHANNELS 3 Zrotation Xrotation Yrotation
    JOINT KneeRight
    {
      OFFSET -27.734009 -8.538216 -1.332645
      CHANNELS 3 Zrotation Xrotation Yrotation
      JOINT AnkleRight
      {
        OFFSET 12.848469 -25.981959 20.503441
        CHANNELS 3 Zrotation Xrotation Yrotation
        JOINT FootRight
        {
          OFFSET 9.789673 -2.391117 0.678679
          CHANNELS 3 Zrotation Xrotation Yrotation
          End Site
          {
            OFFSET 0 0 0
          }
        }
      }
    }
  }
}
MOTION
Frames: 14
Frame Time: 0.033333
20.260517 43.847240 347.545401 0.000000 0.000000 -22.126198 -0.000000 -0.000000 22.126198 -0.000000 0.000000 0.000000 -0.000000 0.000000 0.000000 0.000000 0.000000 0.000000 -0.000000 0.000000 0.000000 -0.000000 0.000000 0.000000 -0.000000 0.000000 0.000000 -0.000000 0.000000 0.000000 0.000000 0.000000 0.000000 0.000000 0.000000 0.000000 -0.000000 0.000000 0.000000 -0.000000 0.000000 0.000000 -0.000000 0.000000 0.000000 -0.000000 0.000000 0.000000 0.000000 0.000000 0.000000 0.000000 0.000000 0.000000 -0.000000 -0.000000 22.126198 -0.000000 0.000000 0.000000 -0.000000 0.000000 0.000000 0.000000 0.000000 0.000000 -0.000000 -0.000000 22.126198 -0.000000 0.000000 0.000000 -0.000000 0.000000 0.000000 0.000000 0.000000 0.000000
19.891447 47.273522 348.700970 -0.421440 -2.522493 -14.794798 -0.402484 -0.049520 14.725709 -0.134310 0.192225 -0.062747 7.135012 2.373119 2.324082 0.000000 0.000000 0.000000 -6.145910 -1.178167 0.581482 13.176370 1.223103 -3.744543 -2.082535 22.001074 7.626833 -10.729654 -2.383051 -50.812511 0.000000 0.000000 0.000000 0.000000 0.000000 0.000000 0.464185 5.709531 1.588829 9.701143 -5.849607 -1.131585 -19.805775 9.120365 0.161788 7.956550 -7.870300 1.082868 0.000000 0.000000 0.000000 0.000000 0.000000 0.000000 7.910686 17.928154 10.419386 -9.508886 -15.583917 1.689645 -2.268589 1.940583 4.071589 0.000000 0.000000 0.000000 7.323450 4.699608 11.960639 -7.829591 -0.505354 2.317043 4.928743 -0.638749 -1.008549 0.000000 0.000000 0.000000
19.503253 49.836740 349.556485 -0.647078 -4.621348 -9.392265 -0.720143 0.011635 9.277435 -0.243508 0.361684 -0.099414 10.889700 5.336742 4.310398 0.000000 0.000000 0.000000 -9.347806 -1.692068 0.919559 22.710734 1.179552 -6.542282 -6.958558 39.203207 12.900289 8.588503 17.828797 -124.851641 0.000000 0.000000 0.000000 0.000000 0.000000 0.000000 0.651530 10.741259 3.189336 15.659487 -10.659140 -1.284918 -33.696846 15.403370 1.842479 14.245001 -13.695688 2.146403 0.000000 0.000000 0.000000 0.000000 0.000000 0.000000 13.859007 24.048998 1.942474 -12.712330 -22.137380 1.761410 -3.802463 3.192661 7.044950 0.000000 0.000000 0.000000 12.578726 6.734833 4.343348 -12.764070 -0.949995 3.655166 8.164495 -0.839401 -0.815519 0.000000 0.000000 0.000000
19.095936 51.536897 350.111947 -0.672880 -6.269126 -5.432908 -0.931904 0.130404 5.300867 -0.324815 0.505329 -0.114114 11.785890 8.679201 6.449513 0.000000 0.000000 0.000000 -10.734891 -1.999073 0.998192 30.320626 0.396127 -8.299905 -13.641314 51.272699 16.787554 16.792075 24.574120 -135.639179 0.000000 0.000000 0.000000 0.000000 0.000000 0.000000 0.619223 14.925850 4.747945 19.626632 -14.547823 -1.095332 -43.974331 19.799784 4.151383 18.976671 -18.215154 2.831560 0.000000 0.000000 0.000000 0.000000 0.000000 0.000000 18.624343 26.915623 -4.402001 -15.179618 -25.836013 1.397939 -4.393431 3.505871 8.914023 0.000000 0.000000 0.000000 15.671274 7.524486 -0.920569 -15.482236 -1.191315 4.261529 9.881988 -0.516399 0.547660 0.000000 0.000000 0.000000
18.669495 52.373991 350.367354 -0.499461 -7.453169 -2.612699 -1.033569 0.272252 2.493259 -0.376596 0.621915 -0.110481 9.930643 12.330233 9.196154 0.000000 0.000000 0.000000 -10.716052 -2.355963 0.746668 37.109240 -0.878065 -8.944739 -21.553759 59.853623 19.386351 18.032126 33.255248 -134.021347 0.000000 0.000000 0.000000 0.000000 0.000000 0.000000 0.446286 18.110307 6.188643 22.407397 -17.501705 -0.831181 -52.009930 23.079946 6.976614 22.379468 -22.172925 2.812975 0.000000 0.000000 0.000000 0.000000 0.000000 0.000000 22.683537 28.444174 -9.172693 -18.365087 -27.910778 0.516561 -3.955064 2.667592 9.630726 0.000000 0.000000 0.000000 16.681925 7.822338 -4.066240 -15.666717 -0.571978 5.101379 9.343638 -0.303717 2.496905 0.000000 0.000000 0.000000
18.223930 52.348022 350.322707 -0.132015 -8.172545 -0.731504 -1.028149 0.417941 0.652395 -0.398245 0.711492 -0.091300 5.059603 16.189741 13.010280 0.000000 0.000000 0.000000 -9.171033 -2.932059 0.064967 43.928342 -2.454996 -8.197208 -30.346007 66.489177 20.048896 14.155059 42.071171 -127.236180 0.000000 0.000000 0.000000 0.000000 0.000000 0.000000 0.226286 20.161720 7.423899 24.474679 -19.362237 -0.598169 -58.852131 25.889179 10.966117 24.416058 -26.536424 1.356560 0.000000 0.000000 0.000000 0.000000 0.000000 0.000000 26.653718 29.316966 -12.808790 -23.023420 -28.817005 -1.025217 -2.587477 0.563926 9.140687 0.000000 0.000000 0.000000 15.539607 7.975885 -5.205547 -14.366539 0.131013 4.909981 7.392184 0.742570 6.458311 0.000000 0.000000 0.000000
18.301031 47.146285 349.448994 0.645532 -8.811674 2.842978 -0.866749 0.738898 -2.830687 -0.386022 0.827380 -0.045567 -10.235683 22.218770 22.553546 0.000000 0.000000 0.000000 -5.649098 -4.409498 -1.377056 53.389270 -4.044663 -5.917248 -43.889214 67.927205 18.883890 9.494236 50.979032 -119.641786 0.000000 0.000000 0.000000 0.000000 0.000000 0.000000 0.228975 19.971304 7.871205 41.771838 -19.806559 4.494618 -61.410089 27.065542 28.969117 -2.813858 -24.024046 -23.429050 0.000000 0.000000 0.000000 0.000000 0.000000 0.000000 38.071317 28.947719 -20.150902 -36.949811 -28.682967 -5.995098 0.890264 -5.842993 5.830092 0.000000 0.000000 0.000000 14.549834 7.427789 -6.485736 -12.067073 -0.127639 3.544252 0.705124 3.705647 11.767311 0.000000 0.000000 0.000000
16.426854 51.111011 349.894838 1.391376 -8.168636 0.829431 -0.597057 0.987032 -0.741265 -0.258612 0.975245 0.010542 -21.960819 23.601718 29.276450 0.000000 0.000000 0.000000 4.091796 -9.476944 -4.229607 61.140734 -1.847100 -1.657961 -66.233911 67.378340 22.271497 -8.389057 62.545224 -93.203794 0.000000 0.000000 0.000000 0.000000 0.000000 0.000000 -2.125165 19.850954 7.363231 22.460734 -4.171635 2.126647 -44.412934 36.595688 83.713672 -40.443259 -1.059767 -92.208718 0.000000 0.000000 0.000000 0.000000 0.000000 0.000000 54.932798 36.484976 -32.071913 -52.005557 -40.145655 -12.898961 0.676137 -6.327621 3.762125 0.000000 0.000000 0.000000 -1.184272 8.547031 -1.848020 2.223065 3.011707 4.711189 -13.329355 3.025169 28.441321 0.000000 0.000000 0.000000
15.377667 54.117295 349.733016 1.908098 -7.689938 -0.967737 -0.415767 1.232644 1.102112 -0.109609 0.958542 0.051686 -34.532694 24.234881 36.859121 0.000000 0.000000 0.000000 20.084123 -11.864422 -6.273687 66.786323 3.868959 7.184266 -83.166937 73.145830 16.142360 -23.373149 63.509956 -75.737741 0.000000 0.000000 0.000000 0.000000 0.000000 0.000000 -1.054010 20.430721 10.056966 -57.128664 41.776474 32.967559 63.931888 5.028459 133.546603 125.014778 20.201211 120.769259 0.000000 0.000000 0.000000 0.000000 0.000000 0.000000 77.555593 28.283744 -29.656482 -82.261261 -25.726005 -23.031560 4.119359 -9.984364 -0.777662 0.000000 0.000000 0.000000 -13.713291 6.463717 5.973413 13.417402 6.044777 0.851721 -21.191386 0.484029 41.651290 0.000000 0.000000 0.000000
15.123163 56.206208 349.100604 2.924690 -7.418460 -1.208148 -0.325377 0.904262 1.444782 -0.050102 0.816282 0.105508 -43.830580 24.089980 41.155266 0.000000 0.000000 0.000000 48.773122 -13.556356 -9.088645 51.680022 17.137734 18.383021 -1.871912 82.038189 -82.097947 -34.339042 52.987356 -71.916715 0.000000 0.000000 0.000000 0.000000 0.000000 0.000000 2.494032 16.816451 11.493771 -123.834626 32.078715 70.694720 115.374046 41.567799 173.590936 147.647649 -5.928128 -139.638245 0.000000 0.000000 0.000000 0.000000 0.000000 0.000000 77.076762 20.917767 -16.260316 -85.829553 -9.967325 -17.731096 6.000178 -14.648931 -5.849716 0.000000 0.000000 0.000000 -23.581446 3.652165 11.269140 20.655738 7.712790 -4.555690 -19.563840 -1.396692 49.333002 0.000000 0.000000 0.000000
15.232193 57.179646 348.176310 3.597267 -7.268226 -0.018575 -0.288693 0.804202 0.323490 -0.229472 0.723521 0.132306 -48.261155 23.298147 41.086520 0.000000 0.000000 0.000000 86.024515 -6.257455 -17.269243 14.290292 23.351248 45.368544 41.904873 53.928893 -133.111112 -42.275208 31.659137 -79.560672 0.000000 0.000000 0.000000 0.000000 0.000000 0.000000 7.548793 11.023317 12.728577 -146.103128 18.006146 80.638036 151.958862 76.578484 165.214419 17.059147 -44.656724 -48.269905 0.000000 0.000000 0.000000 0.000000 0.000000 0.000000 67.905385 15.205414 -7.207143 -80.175939 -1.609413 -12.598049 7.145665 -19.770137 -9.302213 0.000000 0.000000 0.000000 -27.036477 0.262159 16.799808 22.659012 9.431154 -13.510371 -4.479342 2.714100 57.978035 0.000000 0.000000 0.000000
15.704783 56.863788 347.042261 3.512838 -6.963920 2.833775 -0.875756 0.835279 -2.531502 -0.372976 0.738992 0.092540 -45.893234 22.215805 36.150169 0.000000 0.000000 0.000000 115.971933 7.738650 -36.886812 -16.388902 3.910307 70.027663 33.411680 30.909452 -130.801783 -64.712123 8.028618 -74.893869 0.000000 0.000000 0.000000 0.000000 0.000000 0.000000 14.599289 3.429162 14.402785 -156.904236 5.627392 93.804185 -61.762648 60.489354 37.644524 28.833955 -7.585014 -78.443036 0.000000 0.000000 0.000000 0.000000 0.000000 0.000000 58.746828 10.420855 -4.747631 -73.373888 0.886426 -10.151954 7.959759 -24.673687 -11.305205 0.000000 0.000000 0.000000 -18.862850 -2.293738 22.381146 16.606771 10.836325 -24.757267 0.904380 6.126070 57.640558 0.000000 0.000000 0.000000
16.239735 54.647472 346.200965 3.083699 -8.432628 8.940573 0.223761 0.219728 -8.675151 -1.009850 0.452700 0.106983 -44.889360 23.029280 33.492343 0.000000 0.000000 0.000000 133.602679 14.498938 -57.739542 -21.427515 -19.660805 77.885664 51.222126 24.861427 -134.457427 -85.376966 -28.108287 -86.099199 0.000000 0.000000 0.000000 0.000000 0.000000 0.000000 20.392259 -1.287463 15.562888 -161.894732 -6.775386 118.578384 -69.013240 50.874562 46.371721 61.327572 -1.588403 -91.357911 0.000000 0.000000 0.000000 0.000000 0.000000 0.000000 54.472381 8.060692 -11.450592 -69.760305 -2.301350 -10.664832 8.647240 -28.501001 -13.491641 0.000000 0.000000 0.000000 -0.773225 -0.372320 21.750619 0.471486 14.355641 -31.975447 15.094420 12.313705 48.056127 0.000000 0.000000 0.000000
17.005145 50.044611 346.031411 4.572833 -11.166512 8.759327 0.270918 0.732753 -8.258629 -1.448117 0.551943 0.183924 -43.965852 23.205694 28.397061 0.000000 0.000000 0.000000 147.722973 19.112008 -79.946382 -7.757043 -43.277822 90.688382 69.615689 31.191698 -140.814191 -107.199313 -45.093183 -112.164038 0.000000 0.000000 0.000000 0.000000 0.000000 0.000000 27.284960 -8.503708 17.827457 165.149626 9.739588 -73.418461 113.205088 -17.629898 -138.395896 91.628321 -1.763598 -100.546582 0.000000 0.000000 0.000000 0.000000 0.000000 0.000000 48.659065 12.578939 -15.362442 -67.438346 -5.804586 -11.478724 5.340809 -38.625461 -26.002683 0.000000 0.000000 0.000000 16.087793 4.492178 12.230365 -19.207997 11.566875 -22.911199 32.997921 11.537431 23.583182 0.000000 0.000000 0.000000
